<svg xmlns="http://www.w3.org/2000/svg" data-name="Layer 1" width="850.53801" height="740.82953" viewBox="0 0 850.53801 740.82953" xmlns:xlink="http://www.w3.org/1999/xlink">
			<path d="M219.629,608.28482a514.11633,514.11633,0,0,0,45.75,48.92h451.97a16.44588,16.44588,0,0,1,16.42,16.43l.65,114.53a355.4301,355.4301,0,0,0,77.47-48.53q9.84-8.085,19.07-16.87,6.045-5.73,11.8-11.74a355.62853,355.62853,0,0,0,68.82-102.74Z" transform="translate(-174.73099 -79.58524)" fill="#3f3d56"></path>
			<path d="M842.759,711.02475q-5.74494,6.015-11.79993,11.74H734.749v-11.74Z" transform="translate(-174.73099 -79.58524)" fill="#fff"></path>
			<path d="M633.379,335.53476a5.53766,5.53766,0,0,0-4.87-2.8999H300.669a5.55451,5.55451,0,0,0-5.54,5.54992v196.2201H634.05892V338.18478A5.38548,5.38548,0,0,0,633.379,335.53476Z" transform="translate(-174.73099 -79.58524)" fill="#3f3d56"></path>
			<path d="M294.83213,529.09239V553.3062a7.64384,7.64384,0,0,0,7.64382,7.64392H427.57266v47.78659h-1.66185a.9929.9929,0,0,0-.993.99292v3.32374a.9929.9929,0,0,0,.993.993h77.6584a.99291.99291,0,0,0,.993-.993v-3.32374a.9929.9929,0,0,0-.993-.99292h-1.66185V560.95012H627.00407a7.64384,7.64384,0,0,0,7.64382-7.64392V529.09239Z" transform="translate(-174.73099 -79.58524)" fill="#3f3d56"></path>
</svg>