<svg xmlns="http://www.w3.org/2000/svg" data-name="Layer 1" width="850.53801" height="740.82953" viewBox="0 0 850.53801 740.82953" xmlns:xlink="http://www.w3.org/1999/xlink">
			<path d="M601.82894,259.63486h-22.26a2.601,2.601,0,0,0-2.59985,2.59985v22.27a2.59264,2.59264,0,0,0,2.59985,2.59009h22.26a2.59918,2.59918,0,0,0,2.6001-2.59009v-22.27A2.60761,2.60761,0,0,0,601.82894,259.63486Z" transform="translate(-174.73099 -79.58524)" fill="#fff"></path>
			<path d="M601.82894,297.58481h-22.26a2.60105,2.60105,0,0,0-2.59985,2.6v22.27a2.59253,2.59253,0,0,0,2.59985,2.59h22.26a2.59907,2.59907,0,0,0,2.6001-2.59v-22.27A2.60763,2.60763,0,0,0,601.82894,297.58481Z" transform="translate(-174.73099 -79.58524)" fill="#e6e6e6"></path>
			<path d="M601.82894,335.53476h-22.26a2.60116,2.60116,0,0,0-2.59985,2.6001v22.26a2.59464,2.59464,0,0,0,2.59985,2.59985h22.26a2.60116,2.60116,0,0,0,2.6001-2.59985v-22.26A2.60774,2.60774,0,0,0,601.82894,335.53476Z" transform="translate(-174.73099 -79.58524)" fill="#e6e6e6"></path>
			<path d="M604.389,375.62485a2.61714,2.61714,0,0,0-2.56006-2.14014h-22.26a2.60124,2.60124,0,0,0-2.59985,2.6001v22.26a2.59474,2.59474,0,0,0,2.59985,2.6h22.26a2.60126,2.60126,0,0,0,2.6001-2.6v-22.26A2.31271,2.31271,0,0,0,604.389,375.62485Z" transform="translate(-174.73099 -79.58524)" fill="#e6e6e6"></path>
			<path d="M602.839,411.63486a2.634,2.634,0,0,0-1.01-.20008h-22.26a2.59475,2.59475,0,0,0-2.59985,2.6v22.26a2.58836,2.58836,0,0,0,2.59985,2.6001h22.26a2.60137,2.60137,0,0,0,2.6001-2.6001v-22.26A2.61575,2.61575,0,0,0,602.839,411.63486Z" transform="translate(-174.73099 -79.58524)" fill="#e6e6e6"></path>
			<path d="M648.589,259.63486h-22.26a2.601,2.601,0,0,0-2.59985,2.59985v22.27a2.59264,2.59264,0,0,0,2.59985,2.59009h22.26a2.59918,2.59918,0,0,0,2.6001-2.59009v-22.27A2.60761,2.60761,0,0,0,648.589,259.63486Z" transform="translate(-174.73099 -79.58524)" fill="#e6e6e6"></path>
			<path d="M648.589,297.58481h-22.26a2.60105,2.60105,0,0,0-2.59985,2.6v22.27a2.59253,2.59253,0,0,0,2.59985,2.59h22.26a2.59907,2.59907,0,0,0,2.6001-2.59v-22.27A2.60763,2.60763,0,0,0,648.589,297.58481Z" transform="translate(-174.73099 -79.58524)" fill="#27ae60"></path>
			<path d="M648.589,335.53476h-22.26a2.60116,2.60116,0,0,0-2.59985,2.6001v22.26a2.59464,2.59464,0,0,0,2.59985,2.59985h22.26a2.60116,2.60116,0,0,0,2.6001-2.59985v-22.26A2.60774,2.60774,0,0,0,648.589,335.53476Z" transform="translate(-174.73099 -79.58524)" fill="#27ae60"></path>
			<path d="M648.589,373.48471h-22.26a2.59261,2.59261,0,0,0-2.46,1.78,2.47846,2.47846,0,0,0-.13989.82007v22.26a2.59474,2.59474,0,0,0,2.59985,2.6h22.26a2.60126,2.60126,0,0,0,2.6001-2.6v-22.26A2.60782,2.60782,0,0,0,648.589,373.48471Z" transform="translate(-174.73099 -79.58524)" fill="#27ae60"></path>
			<path d="M648.589,411.43478h-22.26a2.59475,2.59475,0,0,0-2.59985,2.6v22.26a2.59485,2.59485,0,0,0,2.59985,2.6001h22.26a2.60137,2.60137,0,0,0,2.6001-2.6001v-22.26A2.60127,2.60127,0,0,0,648.589,411.43478Z" transform="translate(-174.73099 -79.58524)" fill="#e6e6e6"></path>
			<path d="M695.349,259.63486h-22.26a2.601,2.601,0,0,0-2.59985,2.59985v22.27a2.59264,2.59264,0,0,0,2.59985,2.59009h22.26a2.59918,2.59918,0,0,0,2.6001-2.59009v-22.27A2.60761,2.60761,0,0,0,695.349,259.63486Z" transform="translate(-174.73099 -79.58524)" fill="#27ae60"></path>
			<path d="M695.349,297.58481h-22.26a2.60105,2.60105,0,0,0-2.59985,2.6v22.27a2.59253,2.59253,0,0,0,2.59985,2.59h22.26a2.59907,2.59907,0,0,0,2.6001-2.59v-22.27A2.60763,2.60763,0,0,0,695.349,297.58481Z" transform="translate(-174.73099 -79.58524)" fill="#27ae60"></path>
			<path d="M695.349,335.53476h-22.26a2.60116,2.60116,0,0,0-2.59985,2.6001v22.26a2.59464,2.59464,0,0,0,2.59985,2.59985h22.26a2.60116,2.60116,0,0,0,2.6001-2.59985v-22.26A2.60774,2.60774,0,0,0,695.349,335.53476Z" transform="translate(-174.73099 -79.58524)" fill="#e6e6e6"></path>
			<path d="M695.349,373.48471h-22.26a2.60124,2.60124,0,0,0-2.59985,2.6001v22.26a2.59474,2.59474,0,0,0,2.59985,2.6h22.26a2.60126,2.60126,0,0,0,2.6001-2.6v-22.26A2.60782,2.60782,0,0,0,695.349,373.48471Z" transform="translate(-174.73099 -79.58524)" fill="#27ae60"></path>
			<path d="M695.349,411.43478h-22.26a2.59475,2.59475,0,0,0-2.59985,2.6v22.26a2.59485,2.59485,0,0,0,2.59985,2.6001h22.26a2.60137,2.60137,0,0,0,2.6001-2.6001v-22.26A2.60127,2.60127,0,0,0,695.349,411.43478Z" transform="translate(-174.73099 -79.58524)" fill="#27ae60"></path>
			<path d="M742.109,259.63486h-22.26a2.60113,2.60113,0,0,0-2.6,2.59985v22.27a2.59275,2.59275,0,0,0,2.6,2.59009h22.26a2.59918,2.59918,0,0,0,2.6001-2.59009v-22.27A2.60761,2.60761,0,0,0,742.109,259.63486Z" transform="translate(-174.73099 -79.58524)" fill="#27ae60"></path>
			<path d="M742.109,297.58481h-22.26a2.60116,2.60116,0,0,0-2.6,2.6v22.27a2.59264,2.59264,0,0,0,2.6,2.59h22.26a2.59907,2.59907,0,0,0,2.6001-2.59v-22.27A2.60763,2.60763,0,0,0,742.109,297.58481Z" transform="translate(-174.73099 -79.58524)" fill="#fff"></path>
			<path d="M742.109,335.53476h-22.26a2.60126,2.60126,0,0,0-2.6,2.6001v22.26a2.59474,2.59474,0,0,0,2.6,2.59985h22.26a2.60116,2.60116,0,0,0,2.6001-2.59985v-22.26A2.60774,2.60774,0,0,0,742.109,335.53476Z" transform="translate(-174.73099 -79.58524)" fill="#fff"></path>
			<path d="M742.109,373.48471h-22.26a2.60134,2.60134,0,0,0-2.6,2.6001v22.26a2.59485,2.59485,0,0,0,2.6,2.6h22.26a2.60126,2.60126,0,0,0,2.6001-2.6v-22.26A2.60782,2.60782,0,0,0,742.109,373.48471Z" transform="translate(-174.73099 -79.58524)" fill="#e6e6e6"></path>
			<path d="M742.109,411.43478h-22.26a2.59485,2.59485,0,0,0-2.6,2.6v22.26a2.595,2.595,0,0,0,2.6,2.6001h22.26a2.60137,2.60137,0,0,0,2.6001-2.6001v-22.26A2.60127,2.60127,0,0,0,742.109,411.43478Z" transform="translate(-174.73099 -79.58524)" fill="#27ae60"></path>
			<path d="M788.869,259.63486h-22.27a2.599,2.599,0,0,0-2.59,2.59985v22.27a2.59059,2.59059,0,0,0,2.59,2.59009h22.27a2.59918,2.59918,0,0,0,2.6001-2.59009v-22.27A2.60761,2.60761,0,0,0,788.869,259.63486Z" transform="translate(-174.73099 -79.58524)" fill="#fff"></path>
			<path d="M788.869,297.58481h-22.27a2.599,2.599,0,0,0-2.59,2.6v22.27a2.59048,2.59048,0,0,0,2.59,2.59h22.27a2.59907,2.59907,0,0,0,2.6001-2.59v-22.27A2.60763,2.60763,0,0,0,788.869,297.58481Z" transform="translate(-174.73099 -79.58524)" fill="#fff"></path>
			<path d="M788.869,335.53476h-22.27a2.59915,2.59915,0,0,0-2.59,2.6001v22.26a2.59261,2.59261,0,0,0,2.59,2.59985h22.27a2.60116,2.60116,0,0,0,2.6001-2.59985v-22.26A2.60774,2.60774,0,0,0,788.869,335.53476Z" transform="translate(-174.73099 -79.58524)" fill="#fff"></path>
			<path d="M788.869,373.48471h-22.27a2.59923,2.59923,0,0,0-2.59,2.6001v22.26a2.59271,2.59271,0,0,0,2.59,2.6h22.27a2.60126,2.60126,0,0,0,2.6001-2.6v-22.26A2.60782,2.60782,0,0,0,788.869,373.48471Z" transform="translate(-174.73099 -79.58524)" fill="#27ae60"></path>
			<path d="M788.869,411.43478h-22.27a2.59272,2.59272,0,0,0-2.59,2.6v22.26a2.59282,2.59282,0,0,0,2.59,2.6001h22.27a2.60137,2.60137,0,0,0,2.6001-2.6001v-22.26A2.60127,2.60127,0,0,0,788.869,411.43478Z" transform="translate(-174.73099 -79.58524)" fill="#e6e6e6"></path>
			<path d="M835.629,259.63486h-22.27a2.599,2.599,0,0,0-2.59,2.59985v22.27a2.59059,2.59059,0,0,0,2.59,2.59009h22.27a2.59927,2.59927,0,0,0,2.6001-2.59009v-22.27A2.60769,2.60769,0,0,0,835.629,259.63486Z" transform="translate(-174.73099 -79.58524)" fill="#fff"></path>
			<path d="M835.629,297.58481h-22.27a2.599,2.599,0,0,0-2.59,2.6v22.27a2.59048,2.59048,0,0,0,2.59,2.59h22.27a2.59916,2.59916,0,0,0,2.6001-2.59v-22.27A2.60772,2.60772,0,0,0,835.629,297.58481Z" transform="translate(-174.73099 -79.58524)" fill="#fff"></path>
			<path d="M835.629,335.53476h-22.27a2.59915,2.59915,0,0,0-2.59,2.6001v22.26a2.59261,2.59261,0,0,0,2.59,2.59985h22.27a2.60124,2.60124,0,0,0,2.6001-2.59985v-22.26A2.60782,2.60782,0,0,0,835.629,335.53476Z" transform="translate(-174.73099 -79.58524)" fill="#27ae60"></path>
			<path d="M835.629,373.48471h-22.27a2.59923,2.59923,0,0,0-2.59,2.6001v22.26a2.59271,2.59271,0,0,0,2.59,2.6h22.27a2.60134,2.60134,0,0,0,2.6001-2.6v-22.26A2.60791,2.60791,0,0,0,835.629,373.48471Z" transform="translate(-174.73099 -79.58524)" fill="#e6e6e6"></path>
			<path d="M835.629,411.43478h-22.27a2.59272,2.59272,0,0,0-2.59,2.6v22.26a2.59282,2.59282,0,0,0,2.59,2.6001h22.27a2.60146,2.60146,0,0,0,2.6001-2.6001v-22.26A2.60135,2.60135,0,0,0,835.629,411.43478Z" transform="translate(-174.73099 -79.58524)" fill="#fff"></path>
			<path d="M882.389,259.63486h-22.27a2.599,2.599,0,0,0-2.59,2.59985v22.27a2.59059,2.59059,0,0,0,2.59,2.59009h22.27a2.59927,2.59927,0,0,0,2.6001-2.59009v-22.27A2.60769,2.60769,0,0,0,882.389,259.63486Z" transform="translate(-174.73099 -79.58524)" fill="#27ae60"></path>
			<path d="M882.389,297.58481h-22.27a2.599,2.599,0,0,0-2.59,2.6v22.27a2.59048,2.59048,0,0,0,2.59,2.59h22.27a2.59916,2.59916,0,0,0,2.6001-2.59v-22.27A2.60772,2.60772,0,0,0,882.389,297.58481Z" transform="translate(-174.73099 -79.58524)" fill="#27ae60"></path>
			<path d="M882.389,335.53476h-22.27a2.59915,2.59915,0,0,0-2.59,2.6001v22.26a2.59261,2.59261,0,0,0,2.59,2.59985h22.27a2.60124,2.60124,0,0,0,2.6001-2.59985v-22.26A2.60782,2.60782,0,0,0,882.389,335.53476Z" transform="translate(-174.73099 -79.58524)" fill="#e6e6e6"></path>
			<path d="M882.389,373.48471h-22.27a2.59923,2.59923,0,0,0-2.59,2.6001v22.26a2.59271,2.59271,0,0,0,2.59,2.6h22.27a2.60134,2.60134,0,0,0,2.6001-2.6v-22.26A2.60791,2.60791,0,0,0,882.389,373.48471Z" transform="translate(-174.73099 -79.58524)" fill="#fff"></path>
			<path d="M882.389,411.43478h-22.27a2.59272,2.59272,0,0,0-2.59,2.6v22.26a2.59282,2.59282,0,0,0,2.59,2.6001h22.27a2.60146,2.60146,0,0,0,2.6001-2.6001v-22.26A2.60135,2.60135,0,0,0,882.389,411.43478Z" transform="translate(-174.73099 -79.58524)" fill="#27ae60"></path>
			<path d="M929.149,259.63486h-22.27a2.599,2.599,0,0,0-2.59,2.59985v22.27a2.59059,2.59059,0,0,0,2.59,2.59009h22.27a2.59916,2.59916,0,0,0,2.6-2.59009v-22.27A2.60759,2.60759,0,0,0,929.149,259.63486Z" transform="translate(-174.73099 -79.58524)" fill="#27ae60"></path>
			<path d="M929.149,297.58481h-22.27a2.599,2.599,0,0,0-2.59,2.6v22.27a2.59048,2.59048,0,0,0,2.59,2.59h22.27a2.59906,2.59906,0,0,0,2.6-2.59v-22.27A2.60761,2.60761,0,0,0,929.149,297.58481Z" transform="translate(-174.73099 -79.58524)" fill="#27ae60"></path>
			<path d="M929.149,335.53476h-22.27a2.59915,2.59915,0,0,0-2.59,2.6001v22.26a2.59261,2.59261,0,0,0,2.59,2.59985h22.27a2.60114,2.60114,0,0,0,2.6-2.59985v-22.26A2.60772,2.60772,0,0,0,929.149,335.53476Z" transform="translate(-174.73099 -79.58524)" fill="#e6e6e6"></path>
			<path d="M929.149,373.48471h-22.27a2.59923,2.59923,0,0,0-2.59,2.6001v22.26a2.59271,2.59271,0,0,0,2.59,2.6h22.27a2.60124,2.60124,0,0,0,2.6-2.6v-22.26A2.6078,2.6078,0,0,0,929.149,373.48471Z" transform="translate(-174.73099 -79.58524)" fill="#27ae60"></path>
			<path d="M929.149,411.43478h-22.27a2.59272,2.59272,0,0,0-2.59,2.6v22.26a2.59282,2.59282,0,0,0,2.59,2.6001h22.27a2.60135,2.60135,0,0,0,2.6-2.6001v-22.26A2.60125,2.60125,0,0,0,929.149,411.43478Z" transform="translate(-174.73099 -79.58524)" fill="#27ae60"></path>
			<path d="M975.909,259.63486h-22.27a2.599,2.599,0,0,0-2.59,2.59985v22.27a2.59059,2.59059,0,0,0,2.59,2.59009h22.27a2.59916,2.59916,0,0,0,2.6-2.59009v-22.27A2.60759,2.60759,0,0,0,975.909,259.63486Z" transform="translate(-174.73099 -79.58524)" fill="#e6e6e6"></path>
			<path d="M975.909,297.58481h-22.27a2.599,2.599,0,0,0-2.59,2.6v22.27a2.59048,2.59048,0,0,0,2.59,2.59h22.27a2.59906,2.59906,0,0,0,2.6-2.59v-22.27A2.60761,2.60761,0,0,0,975.909,297.58481Z" transform="translate(-174.73099 -79.58524)" fill="#27ae60"></path>
			<path d="M975.909,335.53476h-22.27a2.59915,2.59915,0,0,0-2.59,2.6001v22.26a2.59261,2.59261,0,0,0,2.59,2.59985h22.27a2.60114,2.60114,0,0,0,2.6-2.59985v-22.26A2.60772,2.60772,0,0,0,975.909,335.53476Z" transform="translate(-174.73099 -79.58524)" fill="#27ae60"></path>
			<path d="M975.909,373.48471h-22.27a2.59923,2.59923,0,0,0-2.59,2.6001v22.26a2.59271,2.59271,0,0,0,2.59,2.6h22.27a2.60124,2.60124,0,0,0,2.6-2.6v-22.26A2.6078,2.6078,0,0,0,975.909,373.48471Z" transform="translate(-174.73099 -79.58524)" fill="#27ae60"></path>
			<path d="M975.909,411.43478h-22.27a2.59272,2.59272,0,0,0-2.59,2.6v22.26a2.59282,2.59282,0,0,0,2.59,2.6001h22.27a2.60135,2.60135,0,0,0,2.6-2.6001v-22.26A2.60125,2.60125,0,0,0,975.909,411.43478Z" transform="translate(-174.73099 -79.58524)" fill="#e6e6e6"></path>
			<path d="M1022.669,259.63486h-22.27a2.59913,2.59913,0,0,0-2.59009,2.59985v22.27a2.5907,2.5907,0,0,0,2.59009,2.59009h22.27a2.59916,2.59916,0,0,0,2.6-2.59009v-22.27A2.60759,2.60759,0,0,0,1022.669,259.63486Z" transform="translate(-174.73099 -79.58524)" fill="#e6e6e6"></path>
			<path d="M1022.669,297.58481h-22.27a2.59916,2.59916,0,0,0-2.59009,2.6v22.27a2.59059,2.59059,0,0,0,2.59009,2.59h22.27a2.59906,2.59906,0,0,0,2.6-2.59v-22.27A2.60761,2.60761,0,0,0,1022.669,297.58481Z" transform="translate(-174.73099 -79.58524)" fill="#e6e6e6"></path>
			<path d="M1022.669,335.53476h-22.27a2.59926,2.59926,0,0,0-2.59009,2.6001v22.26a2.59272,2.59272,0,0,0,2.59009,2.59985h22.27a2.60114,2.60114,0,0,0,2.6-2.59985v-22.26A2.60772,2.60772,0,0,0,1022.669,335.53476Z" transform="translate(-174.73099 -79.58524)" fill="#27ae60"></path>
			<path d="M1022.669,373.48471h-22.27a2.59934,2.59934,0,0,0-2.59009,2.6001v22.26a2.59282,2.59282,0,0,0,2.59009,2.6h22.27a2.60124,2.60124,0,0,0,2.6-2.6v-22.26A2.6078,2.6078,0,0,0,1022.669,373.48471Z" transform="translate(-174.73099 -79.58524)" fill="#e6e6e6"></path>
			<path d="M1022.669,411.43478h-22.27a2.59283,2.59283,0,0,0-2.59009,2.6v22.26a2.59293,2.59293,0,0,0,2.59009,2.6001h22.27a2.60135,2.60135,0,0,0,2.6-2.6001v-22.26A2.60125,2.60125,0,0,0,1022.669,411.43478Z" transform="translate(-174.73099 -79.58524)" fill="#e6e6e6"></path>
			<polygon points="336.095 660.051 335.475 660.051 336.005 659.981 336.095 660.051" fill="#2f2e41"></polygon>
		</svg>