<svg xmlns="http://www.w3.org/2000/svg" data-name="Layer 1" width="850.53801" height="740.82953" viewBox="0 0 850.53801 740.82953" xmlns:xlink="http://www.w3.org/1999/xlink">
	<path d="M941.609,465.12478a354.2104,354.2104,0,0,1-98.85,245.9q-5.74494,6.015-11.8,11.74-9.225,8.775-19.07,16.87a353.93418,353.93418,0,0,1-217.58,80.69q-3.97494.09-7.98.09c-63.43,0-143.21-33.87994-215.61-80.78q-8.985-5.82-17.81-11.91-4.125-2.82-8.21-5.72a730.42959,730.42959,0,0,1-79.32-64.8,514.11633,514.11633,0,0,1-45.75-48.92c-55.63-68.62006-67.9-130.45,11.41-143.16q14.085-2.25,27.34-4.81,19.20008-3.69,36.75-7.97,23.64-5.745,44.42005-12.46,6.99-2.25,13.66-4.59c65.74-23.09,109.74-53.19995,139.69-85.87q7.62-8.295,14.05-16.79a236.05512,236.05512,0,0,0,17.83-27.12,254.89845,254.89845,0,0,0,18.41-41.05l.27-.78c23.83-68.74,16.58-132.5,42.87-153.84,112.38-91.23,252.29,38.69,317.96,191.9q4.965,11.58,9.34,23.3,1.965,5.23507,3.79,10.49,4.79992,13.69491,8.71,27.46,1.5,5.25,2.86005,10.49c.97,3.77,1.9,7.53,2.76,11.29C938.139,412.30478,941.609,439.4548,941.609,465.12478Z" transform="translate(-174.73099 -79.58524)" fill="#f2f2f2" />
</svg>